<svg width="45" height="40" viewBox="0 0 45 40" fill="none" xmlns="http://www.w3.org/2000/svg">
<path fill-rule="evenodd" clip-rule="evenodd" d="M40.5864 9.26916L44.0342 10.8769C44.5673 11.1255 44.7702 11.8189 44.4873 12.4256L39.7029 22.6858L34.7545 33.2975C34.4716 33.9042 33.8101 34.1945 33.2769 33.9458L29.8292 32.3381C30.6779 30.518 30.0693 28.4379 28.4698 27.6921C26.8703 26.9462 24.8857 27.8171 24.037 29.6372L20.7296 28.0949C20.1965 27.8463 19.9936 27.153 20.2765 26.5463L20.2778 26.5434L25.1921 16.0664L30.0079 5.67718C30.2895 5.06985 30.9505 4.77777 31.4844 5.02481L31.4869 5.02598L34.7942 6.56821C33.9455 8.3883 34.5541 10.4684 36.1536 11.2143C37.753 11.9601 39.7377 11.0893 40.5864 9.26916ZM27.8932 12.7119L29.3467 13.3897C29.6133 13.514 29.944 13.3689 30.0855 13.0655C30.2269 12.7622 30.1255 12.4155 29.8589 12.2912L28.4055 11.6134C28.1389 11.4891 27.8081 11.6343 27.6667 11.9376C27.5252 12.241 27.6266 12.5876 27.8932 12.7119ZM40.9607 17.468L39.5126 16.7928C39.246 16.6685 38.9153 16.8136 38.7738 17.1169C38.6323 17.4203 38.7338 17.767 39.0004 17.8913L40.4484 18.5665C40.715 18.6908 41.0458 18.5457 41.1872 18.2423C41.3287 17.939 41.2272 17.5923 40.9607 17.468ZM31.2774 14.29L33.2082 15.1903C33.4747 15.3146 33.8055 15.1695 33.947 14.8662C34.0884 14.5628 33.987 14.2161 33.7204 14.0918L31.7897 13.1915C31.5231 13.0672 31.1923 13.2123 31.0509 13.5157C30.9094 13.819 31.0108 14.1657 31.2774 14.29ZM35.1389 16.0907L37.0696 16.991C37.3362 17.1153 37.667 16.9701 37.8084 16.6668C37.9499 16.3634 37.8485 16.0168 37.5819 15.8925L35.6511 14.9921C35.3846 14.8678 35.0538 15.013 34.9123 15.3163C34.7709 15.6197 34.8723 15.9663 35.1389 16.0907Z" fill="url(#paint0_linear_266_119)"/>
<g clip-path="url(#clip0_266_119)">
<path fill-rule="evenodd" clip-rule="evenodd" d="M18.1536 2.5221L22.7439 1.71269C23.4538 1.58753 24.1379 2.10251 24.272 2.86294L26.5396 15.723L28.8849 29.0237C29.019 29.7841 28.5522 30.502 27.8423 30.6272L23.252 31.4366C22.8497 29.1553 20.7973 27.6103 18.6677 27.9858C16.5381 28.3613 15.1379 30.5151 15.5401 32.7964L11.1366 33.5728C10.4268 33.698 9.74264 33.183 9.60855 32.4226L9.60793 32.4191L7.32146 19.2678L4.99638 6.26543C4.86045 5.50533 5.32544 4.78608 6.03494 4.65895L6.03827 4.65835L10.4417 3.88191C10.844 6.1632 12.8964 7.70815 15.026 7.33265C17.1555 6.95715 18.5558 4.80339 18.1536 2.5221ZM7.72721 14.2984L9.66237 13.9572C10.0173 13.8946 10.2507 13.5356 10.1836 13.1554C10.1166 12.7752 9.77452 12.5177 9.41959 12.5803L7.48443 12.9215C7.1295 12.9841 6.89613 13.343 6.96317 13.7232C7.03021 14.1035 7.37229 14.361 7.72721 14.2984ZM24.2006 9.97397L22.2727 10.3139C21.9177 10.3765 21.6844 10.7355 21.7514 11.1157C21.8184 11.4959 22.1605 11.7534 22.5154 11.6908L24.4434 11.3509C24.7983 11.2883 25.0317 10.9293 24.9647 10.5491C24.8976 10.1689 24.5556 9.91139 24.2006 9.97397ZM12.233 13.5039L14.8036 13.0506C15.1585 12.988 15.3919 12.6291 15.3249 12.2489C15.2578 11.8686 14.9157 11.6111 14.5608 11.6737L11.9902 12.127C11.6353 12.1896 11.4019 12.5485 11.4689 12.9288C11.536 13.309 11.8781 13.5665 12.233 13.5039ZM17.3742 12.5973L19.9448 12.1441C20.2998 12.0815 20.5331 11.7225 20.4661 11.3423C20.3991 10.9621 20.057 10.7046 19.7021 10.7672L17.1314 11.2205C16.7765 11.283 16.5431 11.642 16.6102 12.0222C16.6772 12.4024 17.0193 12.6599 17.3742 12.5973Z" fill="black"/>
<path fill-rule="evenodd" clip-rule="evenodd" d="M17.7151 4.01841L21.7081 3.31435C22.3256 3.20547 22.9266 3.68681 23.0505 4.38945L25.1457 16.2721L27.3127 28.562C27.4366 29.2646 27.0365 29.9225 26.419 30.0313L22.4261 30.7354C22.0544 28.6275 20.2514 27.1835 18.399 27.5101C16.5466 27.8367 15.3462 29.8103 15.7179 31.9182L11.8875 32.5936C11.2701 32.7025 10.6691 32.2212 10.5452 31.5185L10.5446 31.5153L8.43021 19.3638L6.28354 7.3493C6.15804 6.64695 6.55661 5.98784 7.17376 5.87715L7.17665 5.87663L11.007 5.20124C11.3787 7.30915 13.1816 8.75317 15.0341 8.42654C16.8865 8.09991 18.0868 6.12632 17.7151 4.01841ZM8.7378 14.7839L10.4211 14.4871C10.7298 14.4327 10.9299 14.1037 10.8679 13.7524C10.806 13.4011 10.5055 13.1604 10.1968 13.2149L8.51347 13.5117C8.20474 13.5661 8.00468 13.895 8.06662 14.2464C8.12857 14.5977 8.42907 14.8383 8.7378 14.7839ZM23.0541 10.9478L21.377 11.2435C21.0683 11.2979 20.8682 11.6268 20.9302 11.9782C20.9921 12.3295 21.2926 12.5702 21.6014 12.5157L23.2784 12.22C23.5871 12.1656 23.7872 11.8366 23.7253 11.4853C23.6633 11.134 23.3628 10.8933 23.0541 10.9478ZM12.6572 14.0928L14.8932 13.6985C15.2019 13.6441 15.402 13.3152 15.3401 12.9639C15.2781 12.6125 14.9776 12.3719 14.6689 12.4263L12.4328 12.8206C12.1241 12.875 11.924 13.204 11.986 13.5553C12.0479 13.9066 12.3484 14.1473 12.6572 14.0928ZM17.1293 13.3043L19.3653 12.91C19.674 12.8556 19.8741 12.5266 19.8122 12.1753C19.7502 11.824 19.4497 11.5833 19.141 11.6378L16.9049 12.032C16.5962 12.0865 16.3961 12.4154 16.4581 12.7667C16.52 13.118 16.8205 13.3587 17.1293 13.3043Z" fill="url(#paint1_linear_266_119)"/>
</g>
<defs>
<linearGradient id="paint0_linear_266_119" x1="37.7605" y1="7.95142" x2="27.0033" y2="31.0204" gradientUnits="userSpaceOnUse">
<stop stop-color="#F5A328"/>
<stop offset="0.588542" stop-color="#F57328"/>
<stop offset="0.9375" stop-color="#F57328"/>
</linearGradient>
<linearGradient id="paint1_linear_266_119" x1="14.4424" y1="4.59549" x2="19.1533" y2="31.3125" gradientUnits="userSpaceOnUse">
<stop offset="0.00520833" stop-color="#F57328"/>
<stop offset="0.348958" stop-color="#F57328"/>
<stop offset="1" stop-color="#F5A328"/>
</linearGradient>
<clipPath id="clip0_266_119">
<rect width="28.3818" height="32.2966" fill="white" transform="translate(0 8.29805) rotate(-17)"/>
</clipPath>
</defs>
</svg>
