<svg width="46" height="43" viewBox="0 0 46 43" fill="none" xmlns="http://www.w3.org/2000/svg">
<rect x="3" width="43" height="43" fill="black"/>
<path fill-rule="evenodd" clip-rule="evenodd" d="M40.5864 12.2692L44.0342 13.8769C44.5673 14.1255 44.7702 14.8189 44.4873 15.4256L39.7029 25.6858L34.7545 36.2975C34.4716 36.9042 33.8101 37.1945 33.2769 36.9458L29.8292 35.3381C30.6779 33.518 30.0693 31.4379 28.4698 30.6921C26.8703 29.9462 24.8857 30.8171 24.037 32.6372L20.7296 31.0949C20.1965 30.8463 19.9936 30.153 20.2765 29.5463L20.2778 29.5434L25.1921 19.0664L30.0079 8.67718C30.2895 8.06985 30.9505 7.77777 31.4844 8.02481L31.4869 8.02598L34.7942 9.56821C33.9455 11.3883 34.5541 13.4684 36.1536 14.2143C37.753 14.9601 39.7377 14.0893 40.5864 12.2692ZM27.8932 15.7119L29.3467 16.3897C29.6133 16.514 29.944 16.3689 30.0855 16.0655C30.2269 15.7622 30.1255 15.4155 29.8589 15.2912L28.4055 14.6134C28.1389 14.4891 27.8081 14.6343 27.6667 14.9376C27.5252 15.241 27.6266 15.5876 27.8932 15.7119ZM40.9607 20.468L39.5126 19.7928C39.246 19.6685 38.9153 19.8136 38.7738 20.1169C38.6323 20.4203 38.7338 20.767 39.0004 20.8913L40.4484 21.5665C40.715 21.6908 41.0458 21.5457 41.1872 21.2423C41.3287 20.939 41.2272 20.5923 40.9607 20.468ZM31.2774 17.29L33.2082 18.1903C33.4747 18.3146 33.8055 18.1695 33.947 17.8662C34.0884 17.5628 33.987 17.2161 33.7204 17.0918L31.7897 16.1915C31.5231 16.0672 31.1923 16.2123 31.0509 16.5157C30.9094 16.819 31.0108 17.1657 31.2774 17.29ZM35.1389 19.0907L37.0696 19.991C37.3362 20.1153 37.667 19.9701 37.8084 19.6668C37.9499 19.3634 37.8485 19.0168 37.5819 18.8925L35.6511 17.9921C35.3846 17.8678 35.0538 18.013 34.9123 18.3163C34.7709 18.6197 34.8723 18.9663 35.1389 19.0907Z" fill="url(#paint0_linear_266_119)"/>
<g clip-path="url(#clip0_266_119)">
<path fill-rule="evenodd" clip-rule="evenodd" d="M18.1536 5.5221L22.7439 4.71269C23.4538 4.58753 24.1379 5.10251 24.272 5.86294L26.5396 18.723L28.8849 32.0237C29.019 32.7841 28.5522 33.502 27.8423 33.6272L23.252 34.4366C22.8497 32.1553 20.7973 30.6103 18.6677 30.9858C16.5381 31.3613 15.1379 33.5151 15.5401 35.7964L11.1366 36.5728C10.4268 36.698 9.74264 36.183 9.60855 35.4226L9.60793 35.4191L7.32146 22.2678L4.99638 9.26543C4.86045 8.50533 5.32544 7.78608 6.03494 7.65895L6.03827 7.65835L10.4417 6.88191C10.844 9.1632 12.8964 10.7081 15.026 10.3326C17.1555 9.95715 18.5558 7.80339 18.1536 5.5221ZM7.72721 17.2984L9.66237 16.9572C10.0173 16.8946 10.2507 16.5356 10.1836 16.1554C10.1166 15.7752 9.77452 15.5177 9.41959 15.5803L7.48443 15.9215C7.1295 15.9841 6.89613 16.343 6.96317 16.7232C7.03021 17.1035 7.37229 17.361 7.72721 17.2984ZM24.2006 12.974L22.2727 13.3139C21.9177 13.3765 21.6844 13.7355 21.7514 14.1157C21.8184 14.4959 22.1605 14.7534 22.5154 14.6908L24.4434 14.3509C24.7983 14.2883 25.0317 13.9293 24.9647 13.5491C24.8976 13.1689 24.5556 12.9114 24.2006 12.974ZM12.233 16.5039L14.8036 16.0506C15.1585 15.988 15.3919 15.6291 15.3249 15.2489C15.2578 14.8686 14.9157 14.6111 14.5608 14.6737L11.9902 15.127C11.6353 15.1896 11.4019 15.5485 11.4689 15.9288C11.536 16.309 11.8781 16.5665 12.233 16.5039ZM17.3742 15.5973L19.9448 15.1441C20.2998 15.0815 20.5331 14.7225 20.4661 14.3423C20.3991 13.9621 20.057 13.7046 19.7021 13.7672L17.1314 14.2205C16.7765 14.283 16.5431 14.642 16.6102 15.0222C16.6772 15.4024 17.0193 15.6599 17.3742 15.5973Z" fill="black"/>
<path fill-rule="evenodd" clip-rule="evenodd" d="M17.7151 7.01841L21.7081 6.31435C22.3256 6.20547 22.9266 6.68681 23.0505 7.38945L25.1457 19.2721L27.3127 31.562C27.4366 32.2646 27.0365 32.9225 26.419 33.0313L22.4261 33.7354C22.0544 31.6275 20.2514 30.1835 18.399 30.5101C16.5466 30.8367 15.3462 32.8103 15.7179 34.9182L11.8875 35.5936C11.2701 35.7025 10.6691 35.2212 10.5452 34.5185L10.5446 34.5153L8.43021 22.3638L6.28354 10.3493C6.15804 9.64695 6.55661 8.98784 7.17376 8.87715L7.17665 8.87663L11.007 8.20124C11.3787 10.3092 13.1816 11.7532 15.0341 11.4265C16.8865 11.0999 18.0868 9.12632 17.7151 7.01841ZM8.7378 17.7839L10.4211 17.4871C10.7298 17.4327 10.9299 17.1037 10.8679 16.7524C10.806 16.4011 10.5055 16.1604 10.1968 16.2149L8.51347 16.5117C8.20474 16.5661 8.00468 16.895 8.06662 17.2464C8.12857 17.5977 8.42907 17.8383 8.7378 17.7839ZM23.0541 13.9478L21.377 14.2435C21.0683 14.2979 20.8682 14.6268 20.9302 14.9782C20.9921 15.3295 21.2926 15.5702 21.6014 15.5157L23.2784 15.22C23.5871 15.1656 23.7872 14.8366 23.7253 14.4853C23.6633 14.134 23.3628 13.8933 23.0541 13.9478ZM12.6572 17.0928L14.8932 16.6985C15.2019 16.6441 15.402 16.3152 15.3401 15.9639C15.2781 15.6125 14.9776 15.3719 14.6689 15.4263L12.4328 15.8206C12.1241 15.875 11.924 16.204 11.986 16.5553C12.0479 16.9066 12.3484 17.1473 12.6572 17.0928ZM17.1293 16.3043L19.3653 15.91C19.674 15.8556 19.8741 15.5266 19.8122 15.1753C19.7502 14.824 19.4497 14.5833 19.141 14.6378L16.9049 15.032C16.5962 15.0865 16.3961 15.4154 16.4581 15.7667C16.52 16.118 16.8205 16.3587 17.1293 16.3043Z" fill="url(#paint1_linear_266_119)"/>
</g>
<defs>
<linearGradient id="paint0_linear_266_119" x1="37.7605" y1="10.9514" x2="27.0033" y2="34.0204" gradientUnits="userSpaceOnUse">
<stop stop-color="#F5A328"/>
<stop offset="0.588542" stop-color="#F57328"/>
<stop offset="0.9375" stop-color="#F57328"/>
</linearGradient>
<linearGradient id="paint1_linear_266_119" x1="14.4424" y1="7.59549" x2="19.1533" y2="34.3125" gradientUnits="userSpaceOnUse">
<stop offset="0.00520833" stop-color="#F57328"/>
<stop offset="0.348958" stop-color="#F57328"/>
<stop offset="1" stop-color="#F5A328"/>
</linearGradient>
<clipPath id="clip0_266_119">
<rect width="28.3818" height="32.2966" fill="white" transform="translate(0 11.298) rotate(-17)"/>
</clipPath>
</defs>
</svg>
